<svg id="Capa_1" data-name="Capa 1" xmlns="http://www.w3.org/2000/svg" viewBox="0 0 334.5 79.49"><defs><style>.cls-1{fill:#192bd5;}.cls-2{fill:#f62300;}</style></defs><path class="cls-1" d="M102.71,49.05a49.54,49.54,0,0,0,.4,6.62h-5.4A14.49,14.49,0,0,1,97.24,52c-1,1.89-3.3,4.34-8.9,4.34-6.94,0-9.9-4.53-9.9-9,0-6.57,5.19-9.58,13.88-9.58h4.84V35.42c0-2.49-.81-5.43-6-5.43-4.61,0-5.43,2.24-5.93,4.5H79.83c.4-4.27,3-8.85,11.56-8.82,7.29,0,11.32,3,11.32,9.7Zm-5.52-7.48H92.73c-5.66,0-8.54,1.59-8.54,5.47,0,2.87,1.94,5,5.42,5,6.69,0,7.58-4.53,7.58-9.57Z"/><path class="cls-1" d="M136,13.44v34c0,2.74,0,5.44.06,8.24h-5.44c-.14-.79-.25-2.9-.28-3.94-1.44,2.91-4.32,4.64-9,4.64-7.51,0-12.16-6.08-12.16-15.06s5-15.64,13.14-15.64c5,0,7.3,2,8.06,3.56V13.44Zm-21,27.7c0,6.82,3.15,10.5,7.63,10.5,6.6,0,7.94-5,7.94-11,0-6.23-1.23-10.28-7.58-10.28C117.94,30.39,115,34.34,115,41.14Z"/><path class="cls-1" d="M147.17,47.2c.79,3,3.07,4.82,6.86,4.82,4.06,0,5.63-1.71,5.63-4.2s-1.33-3.75-6.65-5C144.4,40.68,142.69,38,142.69,34c0-4.18,3.05-8.36,10.84-8.36s10.9,4.47,11.25,8.53h-5.44c-.39-1.74-1.69-4.26-6.06-4.26-3.83,0-5,1.82-5,3.63,0,2,1.14,3,6.4,4.31,9.06,2.14,10.76,5.18,10.76,9.52,0,5.09-4,9-11.61,9-7.85,0-11.56-3.93-12.29-9.17Z"/><path class="cls-1" d="M179.44,53V67.09h-8.21v-34c0-2.41,0-4.79,0-7.18h8a35,35,0,0,1,.27,3.71c1.27-2.19,3.93-4.4,8.66-4.4,6.69,0,11.87,5.6,11.87,14.84,0,10.52-5.78,16.35-13,16.35C182.76,56.37,180.57,54.78,179.44,53Zm12.16-12.7c0-5.46-2.21-8.55-6.14-8.55-4.69,0-6.35,3-6.35,9,0,5.69,1.54,9,6,9S191.6,46.41,191.6,40.34Z"/><path class="cls-1" d="M233.75,40.71c0,9-5.4,15.66-14.84,15.66-9.25,0-14.64-6.6-14.64-15.5,0-9.2,5.56-15.69,15-15.69C228.07,25.18,233.75,31.37,233.75,40.71Zm-21.11.06c0,5.74,2.47,9.14,6.45,9.14s6.28-3.4,6.28-9.09c0-6.24-2.29-9.19-6.4-9.19C215.14,31.63,212.64,34.47,212.64,40.77Z"/><path class="cls-1" d="M245.73,46.71c.62,2.38,2.56,3.71,5.64,3.71s4.16-1.09,4.16-2.9-1.28-2.66-5.55-3.71c-9.71-2.39-11.3-5.4-11.3-9.61,0-4.38,3.09-9,12.08-9s12.1,4.93,12.36,9h-7.85c-.26-1.1-1-3.18-4.88-3.18-2.72,0-3.61,1.21-3.61,2.55s.93,2.2,5.77,3.33c9.94,2.31,11.35,5.72,11.35,10.09,0,4.93-3.75,9.43-12.84,9.43S238.27,52,237.62,46.71Z"/><path class="cls-1" d="M266.11,25.87h4.6V17.8H279v8.07h5.84v6.2H279V46.78c0,2.26.69,3.14,3.15,3.14a14.31,14.31,0,0,0,1.88-.09v5.68a19,19,0,0,1-5.55.57c-5.81,0-7.73-3.11-7.73-8.33V32.07h-4.6Z"/><path class="cls-2" d="M295.9,26.47c4.1,6.49,5.85,9.27,6.9,10.92h.06c1.24-1.9,3.69-5.7,7.14-10.92h5.65l-9.88,14,10,15.16h-5.82l-7.2-11.53h-.05c-1,1.63-3.34,5.53-7.15,11.53H289.9l9.8-14.58-9.5-14.62Z"/><path class="cls-1" d="M54.6,39.66a4.32,4.32,0,0,0,1.81-.4l8.46-4a4.25,4.25,0,0,0-3.61-7.69l-8.47,4a4.25,4.25,0,0,0,1.81,8.09Z"/><path class="cls-1" d="M19.81,35.76l8.12,3.94a4.25,4.25,0,1,0,3.71-7.64l-8.12-3.94a4.25,4.25,0,0,0-3.71,7.64Z"/><path class="cls-1" d="M41.63,34.74a4.25,4.25,0,0,0,4.25-4.25V18.83a4.25,4.25,0,1,0-8.49,0V30.49A4.24,4.24,0,0,0,41.63,34.74Z"/><path class="cls-2" d="M64.62,47.21,43.51,38.68a4.26,4.26,0,0,0-3.34.07l-20,9a4.25,4.25,0,0,0,3.48,7.75L37.6,49.22V62a4.25,4.25,0,0,0,8.5,0V48.89l15.34,6.2a4.25,4.25,0,1,0,3.18-7.88Z"/></svg>