<svg class="morph-nav__logo" xmlns="http://www.w3.org/2000/svg" xmlns:xlink="http://www.w3.org/1999/xlink" width="107" height="35" viewBox="0 0 107 35" fill="none">
  <path d="M14.6468C6.9996 14.6468 89.582 14.6468 89.582 14.6468C91.8791 13.2278 90.508 11.596 86.1921 11.6486 84.642 12.7633 84.0171 13.8779 83.918 17.5795H77.3814V3.01205H83.918V8.57482C84.3903 3.28858 88.9622 0 95.4987 0C101.511 0 105.46 2.76601 107 8.29864V8.29864L101.984 11.8647C101.038 7.98683 97.8404 7.18779 95.125 7.18779C90.5567 7.18779 84.0171 9.09462 83.918 17.5795V27.148C84.0171 33.9092 90.4076 41.0979 101.486 34.0334L105.934 30.3318L107 35.0001H77.3814V20.4327H84.1662V21.0218C84.0171 22.9774 83.7189 24.7843 83.1482 26.1139C84.342 28.1194 86.8123 28.5217 88.5376 27.7227C91.0303 26.5155 91.9762 24.5099 91.9762 22.1307C91.9762 18.9579 88.5376 17.1286 85.9457 16.2551C83.1533 15.3321 81.4527 14.1218 81.4527 12.1662C81.4527 10.6855 82.4723 9.05968 84.5395 9.05968C86.6067 9.05968 87.7259 11.2756 87.8003 12.8052L94.9275 10.0953C93.6847 6.45462 90.1093 3.27644 84.5395 3.27644C78.4765 3.27644 74.3731 7.58977 74.3731 12.1423C74.3731 16.6942 77.1655 18.9579 80.7287 20.14C83.0465 20.8901 85.1137 21.8154 85.1137 23.9303C85.1137 25.8859 83.7198 26.8111 81.6763 26.8111C79.9511 26.8111 77.8839 25.2079 77.3814 22.0818L70.2785 24.8158C70.4573 25.4883 70.7258 26.1388 71.0741 26.7645C73.5321 31.1796 78.252 35.0001 85.8916 35.0001C89.4557 35.0001 92.3478 33.8104 94.505 31.9551C97.3203 34.1905 101.387 35.0001 105.958 35.0001" fill="url(#clip0)"></path>
  <path d="M4.42012 22.9774C3.65106 24.8386 2.01249 26.072 0 26.072C0 26.072 0.0248351 26.0977 0.0248351 26.072C-0.00014766 26.072 0.0248351 35.0001 0.0248351 35.0001H7.30829V18.9301H0.446963V22.9774H4.42012Z" fill="#23A7E0"></path>
  <path d="M12.3244 8.35376C14.0496 8.35376 15.4416 6.92412 15.4416 5.16513C15.4416 3.40614 14.0496 1.9765 12.3244 1.9765C10.5992 1.9765 9.20724 3.40578 9.20724 5.16513C9.20724 6.92448 10.5992 8.35376 12.3244 8.35376Z" fill="#23A7E0"></path>
  <path d="M8.76096 18.9301V35.0001H15.8879V18.9301H8.76096Z" fill="#23A7E0"></path>
  <path d="M64.711 19.415C61.8718 19.415 59.6037 20.8447 58.3609 23.0829V19.878H51.5047V35.0001H58.6322V28.3596C58.6322 25.6256 60.3078 24.8025 62.0826 24.8025C63.8574 24.8025 65.5326 25.6256 65.5326 28.3596V35.0001H72.6597V26.6613C72.6597 21.7908 69.2706 19.415 64.711 19.415Z" fill="#0F52BA"></path>
  <path d="M42.0686 19.4151C39.2294 19.4151 36.9613 20.8447 35.7185 23.0829V19.8781H28.8623V35.0001H35.9894V28.3596C35.9894 25.6256 37.6654 24.8026 39.4401 24.8026C41.215 24.8026 42.8906 25.6256 42.8906 28.3596V35.0001H50.0173V26.6613C50.0173 21.7908 46.6282 19.4151 42.0686 19.4151Z" fill="#0F52BA"></path>
  <defs>
    <linearGradient id="clip0" x1="89.5827" y1="28.6357" x2="54.7505" y2="0.829327" gradientUnits="userSpaceOnUse">
      <stop stop-color="#0F52BA"></stop>
      <stop offset="1" stop-color="#23A7E0"></stop>
    </linearGradient>
  </defs>
</svg>