<svg width="1300" height="612" viewBox="0 0 1300 612" fill="none" xmlns="http://www.w3.org/2000/svg">
<g clip-path="url(#clip0_22_2)">
<rect width="1300" height="612" fill="black"/>
<path d="M111.837 465.059C96.3349 465.059 81.8224 462.586 68.2994 457.638C55.1062 452.691 43.3973 445.764 33.1726 436.859C23.2777 427.954 15.3618 417.399 9.42487 405.195C3.48795 393.322 0.354567 380.293 0.0247372 366.111C-0.305092 347.64 2.66337 331.149 8.93013 316.636C14.8671 302.124 22.783 289.26 32.6778 278.046C42.9026 266.832 54.4466 257.432 67.3099 249.846C80.1733 241.93 93.3664 235.498 106.889 230.551C99.6332 226.593 92.7068 221.81 86.1102 216.203C79.8434 210.596 74.2363 204.329 69.2889 197.403C64.3415 190.476 60.3835 183.22 57.415 175.634C54.4466 168.048 52.9624 160.462 52.9624 152.876C52.3027 129.788 56.9203 108.844 66.8152 90.0434C77.0399 71.2431 90.0682 55.2464 105.9 42.0532C121.732 28.5302 139.378 18.1406 158.838 10.8844C178.627 3.62812 197.922 0 216.723 0C229.256 0 239.976 2.14389 248.881 6.43167C257.786 10.3896 265.043 15.502 270.65 21.7687C276.257 27.7057 280.38 34.3023 283.018 41.5585C285.987 48.4849 287.636 54.9166 287.966 60.8535C288.296 71.7379 286.811 82.7872 283.513 94.0014C280.545 105.216 276.587 115.44 271.639 124.675C267.022 133.581 261.744 141.002 255.807 146.939C249.87 152.546 244.098 155.35 238.491 155.35C234.204 155.35 229.751 154.69 225.133 153.371C221.175 152.381 216.558 150.732 211.28 148.423C206.003 146.114 200.726 142.651 195.449 138.034C204.024 134.735 211.61 130.118 218.207 124.181C224.803 117.914 230.246 110.988 234.533 103.402C239.151 95.8154 242.449 88.0644 244.428 80.1485C246.737 71.9028 247.891 64.1518 247.891 56.8956C247.562 46.341 245.088 38.2602 240.47 32.6531C235.853 26.7162 228.432 23.7477 218.207 23.7477C204.354 23.7477 190.501 27.2109 176.648 34.1373C162.796 40.7339 150.427 50.1341 139.543 62.3377C128.988 74.2116 120.577 88.5592 114.311 105.38C108.374 121.872 106.395 139.848 108.374 159.308C110.023 174.15 114.476 186.683 121.732 196.908C129.318 207.133 136.409 215.049 143.006 220.656C148.283 219.996 153.23 219.501 157.848 219.172C162.466 218.512 166.753 218.182 170.711 218.182C176.319 218.182 181.926 219.172 187.533 221.151C193.14 223.13 195.943 225.933 195.943 229.561C195.943 232.2 195.284 235.168 193.964 238.467C192.975 241.765 191.161 244.898 188.522 247.867C185.884 250.835 182.75 253.309 179.122 255.288C175.494 257.267 171.206 258.256 166.259 258.256C162.301 258.256 157.518 257.267 151.911 255.288C146.304 253.309 140.697 250.835 135.09 247.867C122.556 250.505 111.177 255.288 100.953 262.214C90.7278 268.811 81.9873 276.727 74.7311 285.962C67.8047 295.197 62.3625 305.257 58.4045 316.141C54.4466 327.026 52.6325 337.58 52.9624 347.805C53.2922 357.37 54.7764 366.935 57.415 376.5C60.0537 386.395 64.1765 395.136 69.7836 402.722C75.3907 410.308 82.647 416.41 91.5524 421.027C100.788 425.975 111.837 428.448 124.7 428.448C134.265 428.448 143.336 426.304 151.911 422.017C160.817 418.059 169.062 412.946 176.648 406.68C184.234 400.413 191.161 393.486 197.428 385.9C203.694 378.314 209.137 370.893 213.754 363.637C218.372 356.381 222.165 349.784 225.133 343.847C228.432 337.91 230.74 333.622 232.06 330.984C233.049 329.005 234.368 327.521 236.018 326.531C237.997 325.542 239.811 325.377 241.46 326.036C243.439 326.366 244.923 327.521 245.913 329.5C246.902 331.479 246.902 334.447 245.913 338.405C243.274 350.279 238.326 363.472 231.07 377.984C223.814 392.827 214.414 406.68 202.87 419.543C191.656 432.406 178.297 443.126 162.796 451.701C147.623 460.607 130.637 465.059 111.837 465.059Z" fill="#EFEFF2"/>
<path d="M427.484 385.406C419.898 385.406 413.301 383.921 407.694 380.953C402.417 378.314 398.129 374.686 394.83 370.069C391.532 365.451 389.388 360.174 388.399 354.237C387.409 347.97 387.739 341.373 389.388 334.447C390.378 329.829 392.027 323.728 394.336 316.141C396.645 308.226 398.953 299.815 401.262 290.909C403.901 281.674 406.21 272.604 408.189 263.699C410.497 254.463 411.982 246.218 412.641 238.961C413.301 231.375 412.971 225.273 411.652 220.656C410.332 215.708 407.529 213.235 403.241 213.235C397.964 213.235 392.522 215.049 386.915 218.677C381.307 221.975 375.535 226.593 369.599 232.53C363.991 238.467 358.219 245.393 352.282 253.309C346.675 260.895 341.068 268.811 335.461 277.057C332.493 288.271 330.019 298.166 328.04 306.741C326.061 314.987 324.247 322.573 322.598 329.5C321.279 336.096 319.959 342.033 318.64 347.31C317.321 352.258 316.166 357.04 315.177 361.658C314.187 364.956 311.219 368.254 306.271 371.553C301.324 374.521 296.047 376.995 290.439 378.974C284.832 380.953 280.05 381.942 276.092 381.942C271.804 381.942 269.99 380.458 270.65 377.49C270.98 375.511 272.134 371.058 274.113 364.132C275.762 357.205 277.906 349.124 280.545 339.889C282.853 330.324 285.327 320.264 287.966 309.71C290.604 299.155 293.078 289.095 295.387 279.53C297.036 271.944 298.85 263.534 300.829 254.298C302.478 246.383 304.457 237.147 306.766 226.593C309.405 216.038 312.373 204.494 315.671 191.961C317.98 189.982 320.289 188.497 322.598 187.508C325.236 186.189 327.875 185.199 330.514 184.54C333.152 183.55 335.956 182.89 338.924 182.561C341.563 182.561 344.202 182.725 346.84 183.055C349.149 183.385 351.458 184.045 353.767 185.034C356.405 185.694 358.714 186.848 360.693 188.497C359.704 190.806 358.549 194.105 357.23 198.392C355.911 202.35 354.591 206.638 353.272 211.256C351.953 216.533 350.304 221.975 348.325 227.582C352.612 221.645 357.395 215.708 362.672 209.771C368.279 203.505 374.216 197.898 380.483 192.95C387.079 188.003 394.006 184.045 401.262 181.076C408.518 177.778 415.94 176.129 423.526 176.129C429.792 176.129 435.399 177.943 440.347 181.571C445.294 185.199 449.087 190.312 451.726 196.908C454.694 203.175 456.344 210.761 456.673 219.666C457.333 228.572 456.179 238.302 453.21 248.856L447.768 270.625C446.119 277.551 443.975 285.797 441.336 295.362C439.028 304.597 436.059 314.822 432.431 326.036C430.452 333.293 429.627 339.559 429.957 344.837C430.617 350.114 433.915 352.752 439.852 352.752C445.789 352.752 453.21 349.124 462.116 341.868C471.351 334.612 480.586 325.871 489.821 315.647C499.057 305.422 507.797 295.032 516.043 284.478C524.289 273.593 530.555 264.853 534.843 258.256C537.812 253.969 540.615 251.165 543.254 249.846C545.892 248.526 547.871 248.362 549.191 249.351C550.84 250.34 551.664 252.649 551.664 256.277C551.664 259.576 550.345 263.863 547.706 269.141C545.398 273.758 541.769 279.86 536.822 287.446C532.204 295.032 526.597 303.113 520.001 311.689C513.404 320.264 506.313 329.005 498.727 337.91C491.141 346.486 483.225 354.402 474.979 361.658C466.733 368.584 458.488 374.191 450.242 378.479C442.326 383.097 434.74 385.406 427.484 385.406Z" fill="#EFEFF2"/>
<path d="M738.678 270.13C728.783 284.643 717.569 298.825 705.035 312.678C692.501 326.201 679.143 338.405 664.961 349.289C651.108 359.844 636.76 368.419 621.918 375.016C607.406 381.613 593.223 384.911 579.37 384.911C572.114 384.911 564.198 383.097 555.622 379.469C547.377 376.17 539.791 370.893 532.864 363.637C525.938 356.381 520.331 346.98 516.043 335.436C512.085 323.892 510.93 309.875 512.58 293.383C513.899 279.86 518.022 265.678 524.948 250.835C532.204 235.663 540.945 221.81 551.17 209.277C561.724 196.743 573.433 186.354 586.296 178.108C599.49 169.862 612.683 165.739 625.876 165.739C638.409 165.739 647.48 168.873 653.087 175.139C658.694 181.406 661.168 189.157 660.508 198.392C659.519 208.617 656.55 218.017 651.603 226.593C646.985 235.168 641.378 242.919 634.781 249.846C628.185 256.772 621.093 263.039 613.507 268.646C606.251 274.253 599.325 279.365 592.728 283.983C585.472 288.931 578.545 293.713 571.949 298.331C565.352 302.618 559.58 306.576 554.633 310.205C554.963 318.45 556.447 325.377 559.086 330.984C561.724 336.591 565.022 341.208 568.98 344.837C572.938 348.135 577.391 350.609 582.338 352.258C587.616 353.577 592.893 354.237 598.17 354.237C609.384 354.237 621.093 350.774 633.297 343.847C645.501 336.591 657.375 328.015 668.919 318.12C680.793 307.896 691.677 297.341 701.572 286.457C711.797 275.572 720.207 266.172 726.804 258.256C729.113 255.618 731.421 254.134 733.73 253.804C736.369 253.144 738.348 253.474 739.667 254.793C741.316 255.783 742.141 257.762 742.141 260.73C742.141 263.369 740.986 266.502 738.678 270.13ZM612.023 193.94C608.065 193.94 603.283 195.919 597.676 199.877C592.398 203.835 587.121 209.607 581.844 217.193C576.566 224.449 571.619 233.519 567.001 244.404C562.384 254.958 558.921 267.162 556.612 281.015C560.57 278.046 564.858 275.078 569.475 272.109C574.093 268.811 578.71 265.348 583.328 261.72C597.511 250.835 607.406 241.27 613.013 233.024C618.62 224.779 621.753 217.687 622.413 211.75C623.072 205.484 622.413 201.031 620.434 198.392C618.455 195.424 615.651 193.94 612.023 193.94Z" fill="#EFEFF2"/>
<path d="M712.951 321.584C709.323 317.955 706.684 314.492 705.035 311.194C703.716 307.566 702.726 304.103 702.067 300.804C701.407 297.176 701.407 293.548 702.067 289.92C703.386 285.302 705.365 281.015 708.003 277.057C710.312 273.429 713.446 269.8 717.404 266.172C721.362 262.214 726.639 258.586 733.235 255.288C737.523 244.733 741.316 233.684 744.615 222.14C748.243 210.266 751.376 199.547 754.015 189.982C756.983 178.768 759.622 167.553 761.931 156.339C770.176 128.304 774.464 105.545 774.794 88.0644C775.124 70.2537 774.794 58.5447 773.804 52.9376C773.475 50.6288 773.145 48.32 772.815 46.0112C772.155 44.0322 771.496 41.8883 770.836 39.5795C770.506 36.9409 770.011 34.4672 769.352 32.1584C772.98 30.1794 776.113 28.5302 778.752 27.2109C781.72 25.8916 784.194 24.9021 786.173 24.2425C788.482 23.253 790.626 22.5933 792.605 22.2635C800.191 20.6143 807.282 19.7898 813.879 19.7898C820.805 19.4599 824.598 20.6143 825.258 23.253C825.588 24.9021 825.917 27.8706 826.247 32.1584C826.907 36.4461 827.237 41.7234 827.237 47.9902C827.237 54.2569 826.742 61.3483 825.753 69.2642C824.763 76.8502 822.949 84.9311 820.31 93.5066C818.002 101.093 814.868 111.647 810.91 125.17C807.282 136.714 802.5 152.216 796.563 171.676C790.626 190.806 782.875 215.379 773.31 245.393C783.205 242.095 794.089 238.961 805.963 235.993C817.837 233.024 829.875 230.551 842.079 228.572C854.613 226.593 866.981 225.109 879.185 224.119C891.718 223.13 903.262 222.965 913.817 223.624C915.796 223.624 917.115 224.614 917.775 226.593C918.764 228.242 918.764 230.056 917.775 232.035C917.115 234.014 915.301 235.993 912.333 237.972C909.694 239.621 905.736 240.611 900.459 240.94C893.862 241.6 886.606 242.425 878.69 243.414C870.774 244.074 862.529 245.228 853.953 246.877C845.707 248.197 837.461 250.011 829.216 252.319C820.97 254.298 813.219 256.772 805.963 259.741C800.356 261.72 794.749 263.699 789.141 265.678C784.524 267.327 779.576 269.306 774.299 271.614C769.352 273.593 765.229 275.408 761.931 277.057L750.551 313.173C769.682 326.696 784.359 340.549 794.584 354.731C805.138 368.914 812.724 381.942 817.342 393.816C822.949 407.669 826.082 421.192 826.742 434.385C826.742 448.898 824.598 463.41 820.31 477.923C816.023 492.765 810.251 506.783 802.994 519.976C796.068 533.499 787.822 546.032 778.257 557.577C769.022 569.121 759.127 579.015 748.572 587.261C738.348 595.507 727.793 601.774 716.909 606.061C706.354 610.349 696.295 611.998 686.729 611.009C679.803 610.349 674.031 608.04 669.413 604.082C664.796 600.454 661.333 595.672 659.024 589.735C656.715 584.128 655.396 577.696 655.066 570.44C654.736 563.513 655.396 556.587 657.045 549.661C658.364 542.734 661.168 529.871 665.455 511.071C669.084 495.239 674.691 472.151 682.277 441.806C689.863 411.792 700.088 371.718 712.951 321.584ZM742.141 344.837C737.523 361.328 733.4 376.5 729.772 390.353C726.474 404.206 723.67 416.41 721.362 426.964C718.393 439.168 716.084 450.217 714.435 460.112C711.467 472.645 708.333 485.014 705.035 497.218C702.067 509.421 699.758 520.306 698.109 529.871C696.13 539.766 695.305 547.682 695.635 553.619C695.965 559.556 698.109 562.524 702.067 562.524C711.632 563.184 721.526 559.391 731.751 551.145C742.306 543.229 751.871 533.004 760.446 520.471C769.022 508.267 776.113 494.909 781.72 480.396C787.327 466.214 790.131 453.021 790.131 440.817C790.131 427.294 787.987 413.936 783.699 400.743C780.731 393.816 777.268 387.055 773.31 380.458C769.682 374.851 765.229 368.914 759.952 362.647C755.004 356.051 749.067 350.114 742.141 344.837Z" fill="#EFEFF2"/>
<path d="M976.649 81.6328C975.66 85.2609 973.681 88.889 970.713 92.5171C968.074 95.8154 964.941 98.619 961.312 100.928C958.014 102.907 954.551 104.226 950.923 104.886C947.295 105.545 944.326 104.886 942.017 102.907C935.091 97.6295 931.463 92.0224 931.133 86.0855C930.803 79.8187 932.287 74.0467 935.586 68.7694C938.884 63.1623 943.007 58.5447 947.954 54.9166C952.902 50.9586 957.19 48.6498 960.818 47.9902C964.446 47.3305 967.414 48.1551 969.723 50.4639C972.362 52.4429 974.341 55.2464 975.66 58.8745C976.979 62.1728 977.639 65.9659 977.639 70.2537C977.969 74.5414 977.639 78.3345 976.649 81.6328ZM908.375 187.013C910.024 185.034 913.157 183.385 917.775 182.066C922.393 180.746 927.175 179.757 932.123 179.097C937.07 178.108 941.523 177.613 945.481 177.613C949.768 177.283 952.242 177.283 952.902 177.613C953.232 177.943 952.407 181.406 950.428 188.003C948.449 194.599 945.975 202.35 943.007 211.256C940.038 220.161 936.905 229.396 933.607 238.961C930.308 248.197 927.835 255.783 926.186 261.72C924.536 267.657 922.557 274.418 920.249 282.004C917.94 289.26 915.796 296.517 913.817 303.773C912.168 310.699 911.013 317.296 910.354 323.563C909.694 329.829 910.189 334.612 911.838 337.91C913.487 341.868 915.301 344.672 917.28 346.321C919.259 347.64 921.403 348.3 923.712 348.3C930.308 348.3 938.554 344.672 948.449 337.415C958.674 330.159 968.898 321.584 979.123 311.689C989.678 301.464 999.408 291.239 1008.31 281.015C1017.22 270.46 1023.82 262.049 1028.1 255.783C1030.74 252.484 1033.38 250.34 1036.02 249.351C1038.99 248.362 1041.3 248.526 1042.95 249.846C1044.92 251.165 1045.91 253.309 1045.91 256.277C1046.24 259.246 1045.25 262.709 1042.95 266.667C1037.67 275.902 1029.92 286.952 1019.69 299.815C1009.47 312.348 998.583 324.552 987.039 336.426C975.495 347.97 964.116 357.865 952.902 366.111C942.017 374.356 933.112 378.644 926.186 378.974C920.578 379.304 914.971 378.314 909.364 376.005C904.087 374.026 899.14 371.223 894.522 367.595C890.234 363.637 886.606 359.184 883.638 354.237C880.669 348.959 879.02 343.517 878.69 337.91C877.701 329.664 877.701 318.45 878.69 304.268C879.68 289.755 881.494 275.078 884.132 260.235C886.771 245.063 890.069 230.716 894.027 217.193C898.315 203.67 903.098 193.61 908.375 187.013Z" fill="#EFEFF2"/>
<path d="M1189.39 247.867C1190.71 245.888 1192.36 244.733 1194.34 244.404C1196.65 243.744 1198.46 243.909 1199.78 244.898C1201.1 245.888 1201.76 247.537 1201.76 249.846C1202.09 252.155 1201.26 255.288 1199.28 259.246C1192.69 271.779 1183.95 285.302 1173.06 299.815C1162.51 314.327 1151.29 328.015 1139.42 340.879C1127.55 353.412 1116 363.802 1104.79 372.048C1093.57 380.293 1084.17 384.416 1076.59 384.416C1065.7 384.416 1056.63 382.272 1049.38 377.984C1042.12 373.697 1036.35 368.419 1032.06 362.153C1028.1 355.886 1025.3 349.124 1023.65 341.868C1022 334.282 1021.51 327.356 1022.17 321.089C1022.5 315.812 1023.65 306.411 1025.63 292.888C1027.61 279.036 1030.25 263.204 1033.55 245.393C1036.84 227.252 1040.47 207.957 1044.43 187.508C1048.72 166.729 1053.17 146.774 1057.79 127.644C1052.18 128.304 1046.57 128.963 1040.97 129.623C1035.36 130.283 1030.25 130.612 1025.63 130.612C1015.07 130.612 1005.18 129.458 995.944 127.149C986.379 124.511 979.288 122.037 974.671 119.728C972.032 118.409 970.877 116.595 971.207 114.286C971.537 111.647 972.527 109.174 974.176 106.865C975.825 104.226 977.969 102.082 980.607 100.433C982.916 98.4541 985.06 97.4646 987.039 97.4646C993.306 98.1242 1000.07 98.7839 1007.32 99.4436C1014.58 99.7734 1022.5 99.7734 1031.07 99.4436C1037.34 99.1137 1043.28 98.619 1048.88 97.9593C1054.82 97.2997 1060.59 96.4751 1066.2 95.4856C1070.49 79.6538 1074.61 65.9659 1078.57 54.4218C1082.85 42.548 1086.65 34.3023 1089.95 29.6846C1090.94 28.0355 1093.08 26.7162 1096.38 25.7267C1100.01 24.4074 1103.8 23.5828 1107.76 23.253C1111.71 22.5933 1115.51 22.5933 1119.14 23.253C1122.76 23.5828 1125.4 24.7372 1127.05 26.7162C1128.7 29.3548 1129.36 36.1163 1129.03 47.0007C1128.7 57.8851 1126.89 71.7379 1123.59 88.5592C1137.44 88.5592 1149.64 89.3838 1160.2 91.0329C1171.08 92.3522 1180.32 94.0014 1187.91 95.9803C1195.49 97.6295 1201.59 99.4436 1206.21 101.423C1210.83 103.072 1214.29 104.226 1216.6 104.886C1218.91 105.545 1220.06 107.195 1220.06 109.833C1220.39 112.472 1219.9 115.275 1218.58 118.244C1217.59 120.882 1215.78 123.191 1213.14 125.17C1210.5 127.149 1207.53 127.809 1204.23 127.149C1200.93 126.819 1197.14 126.16 1192.85 125.17C1188.89 124.181 1183.95 123.356 1178.01 122.697C1172.4 122.037 1165.64 121.377 1157.73 120.718C1149.81 120.058 1140.57 119.728 1130.02 119.728C1128.04 119.728 1125.73 119.893 1123.09 120.223C1120.78 120.223 1118.31 120.223 1115.67 120.223C1114.35 125.5 1113.03 130.777 1111.71 136.055C1110.73 141.002 1109.24 146.279 1107.26 151.886C1102.97 165.08 1098.03 179.427 1092.42 194.929C1087.47 208.452 1081.54 223.954 1074.61 241.435C1067.68 258.916 1059.93 277.551 1051.36 297.341C1049.38 311.524 1049.54 322.408 1051.85 329.994C1054.49 337.251 1057.62 342.528 1061.25 345.826C1065.54 349.454 1070.82 351.433 1077.08 351.763C1082.03 352.423 1087.97 350.774 1094.89 346.816C1102.15 342.528 1109.57 336.921 1117.16 329.994C1124.74 323.068 1132.33 315.482 1139.92 307.236C1147.83 298.99 1155.09 290.909 1161.68 282.994C1168.28 275.078 1174.05 267.986 1179 261.72C1183.95 255.123 1187.41 250.505 1189.39 247.867Z" fill="#EFEFF2"/>
<path d="M1229.46 356.216C1231.44 357.535 1233.92 358.195 1236.88 358.195C1240.18 358.195 1243.32 357.535 1246.28 356.216C1249.58 354.896 1252.55 353.082 1255.19 350.774C1258.16 348.465 1260.3 345.496 1261.62 341.868C1262.94 338.24 1262.94 333.128 1261.62 326.531C1260.3 319.605 1258.16 312.348 1255.19 304.762C1252.55 296.846 1249.58 288.931 1246.28 281.015C1242.99 273.099 1240.18 265.842 1237.87 259.246C1235.9 254.298 1234.25 249.681 1232.93 245.393C1231.61 241.765 1230.29 238.302 1228.97 235.003C1227.98 231.375 1227.15 228.902 1226.5 227.582C1224.85 230.221 1221.88 234.509 1217.59 240.446C1213.63 246.383 1209.18 252.649 1204.23 259.246C1199.61 265.513 1195.16 271.45 1190.87 277.057C1186.59 282.334 1183.62 285.962 1181.97 287.941C1179.33 290.909 1176.69 292.724 1174.05 293.383C1171.74 293.713 1169.76 293.218 1168.12 291.899C1166.47 290.25 1165.48 288.106 1165.15 285.467C1165.15 282.499 1166.47 279.036 1169.1 275.078C1171.08 272.439 1174.05 268.316 1178.01 262.709C1181.97 256.772 1185.93 250.835 1189.88 244.898C1193.84 238.632 1197.47 233.189 1200.77 228.572C1204.07 223.624 1205.88 220.656 1206.21 219.666C1206.87 217.028 1205.88 213.565 1203.24 209.277C1200.93 204.989 1200.6 200.042 1202.25 194.434C1203.57 189.817 1206.54 184.54 1211.16 178.603C1215.78 172.336 1221.22 166.729 1227.48 161.781C1233.75 156.834 1240.18 153.206 1246.78 150.897C1253.38 148.258 1259.31 148.258 1264.59 150.897C1268.88 153.536 1272.34 156.504 1274.98 159.802C1277.62 162.771 1278.61 165.904 1277.95 169.202C1277.29 170.852 1276.3 172.995 1274.98 175.634C1273.66 178.273 1271.68 181.571 1269.04 185.529C1266.4 189.157 1262.61 193.94 1257.66 199.877C1258.65 207.463 1259.97 214.389 1261.62 220.656C1263.6 226.923 1265.42 232.365 1267.06 236.982C1269.04 242.589 1271.19 247.702 1273.5 252.319C1276.46 258.256 1279.6 264.358 1282.9 270.625C1286.19 276.892 1289.16 283.159 1291.8 289.425C1294.44 295.362 1296.58 300.969 1298.23 306.247C1299.88 311.524 1300.38 315.977 1299.72 319.605C1298.73 325.212 1295.76 331.973 1290.81 339.889C1286.19 347.805 1280.26 355.556 1273 363.142C1266.07 370.398 1257.99 376.665 1248.76 381.942C1239.85 387.22 1230.45 389.858 1220.56 389.858C1213.63 389.858 1206.87 387.714 1200.27 383.427C1194.01 379.139 1188.56 374.191 1183.95 368.584C1179.66 362.647 1176.36 356.875 1174.05 351.268C1172.07 345.661 1171.91 341.373 1173.56 338.405C1175.54 334.447 1177.35 331.314 1179 329.005C1180.65 326.696 1183.12 324.057 1186.42 321.089C1187.74 320.099 1189.39 318.945 1191.37 317.626C1193.02 316.636 1195.33 315.647 1198.29 314.657C1201.26 313.668 1204.73 312.513 1208.68 311.194C1211.98 321.419 1214.95 329.5 1217.59 335.436C1220.23 341.044 1222.37 345.496 1224.02 348.795C1226 352.423 1227.81 354.896 1229.46 356.216Z" fill="#EFEFF2"/>
</g>
<defs>
<clipPath id="clip0_22_2">
<rect width="1300" height="612" fill="white"/>
</clipPath>
</defs>
</svg>
